<?xml version="1.0" encoding="utf-8"?>
<!-- Generator: Adobe Illustrator 16.0.4, SVG Export Plug-In . SVG Version: 6.00 Build 0)  -->
<!DOCTYPE svg PUBLIC "-//W3C//DTD SVG 1.1//EN" "http://www.w3.org/Graphics/SVG/1.1/DTD/svg11.dtd">
<svg version="1.1"
	 id="svg9844" xmlns:sodipodi="http://sodipodi.sourceforge.net/DTD/sodipodi-0.dtd" xmlns:svg="http://www.w3.org/2000/svg" xmlns:cc="http://creativecommons.org/ns#" xmlns:dc="http://purl.org/dc/elements/1.1/" xmlns:inkscape="http://www.inkscape.org/namespaces/inkscape" xmlns:rdf="http://www.w3.org/1999/02/22-rdf-syntax-ns#"
	 xmlns="http://www.w3.org/2000/svg" xmlns:xlink="http://www.w3.org/1999/xlink" x="0px" y="0px" width="60px" height="60px"
	 viewBox="0 0 60 60" enable-background="new 0 0 60 60" xml:space="preserve">
<path opacity="0.5" fill="#FFFFFF" enable-background="new    " d="M30,0C13.432,0,0,13.432,0,30s13.432,30,30,30s30-13.432,30-30
	S46.568,0,30,0z M44.621,21.086c-0.798,1.195-1.787,2.227-2.94,3.071c0.009,0.231,0.015,0.464,0.015,0.698
	c0,8.393-6.387,17.075-17.075,17.075c-3.267,0-6.448-0.933-9.199-2.697c-0.059-0.036-0.081-0.107-0.059-0.172
	c0.023-0.062,0.088-0.104,0.154-0.094c0.462,0.054,0.934,0.082,1.402,0.082c2.542,0,4.948-0.786,6.984-2.277
	c-2.44-0.206-4.537-1.857-5.291-4.213c-0.016-0.048-0.004-0.102,0.03-0.141c0.034-0.035,0.086-0.056,0.136-0.045
	c0.676,0.129,1.363,0.136,2.026,0.028c-2.516-0.782-4.285-3.139-4.285-5.822v-0.078c0.001-0.051,0.029-0.098,0.073-0.123
	c0.044-0.025,0.099-0.025,0.143,0c0.656,0.364,1.382,0.599,2.127,0.688c-1.446-1.153-2.295-2.9-2.295-4.769
	c0-1.078,0.286-2.138,0.825-3.064c0.024-0.041,0.067-0.072,0.115-0.072c0.048-0.005,0.094,0.016,0.124,0.053
	c2.96,3.63,7.313,5.866,11.968,6.153c-0.078-0.391-0.117-0.793-0.117-1.2c0-3.361,2.734-6.095,6.096-6.095
	c1.652,0,3.249,0.679,4.393,1.866c1.291-0.263,2.52-0.737,3.654-1.41c0.051-0.031,0.117-0.027,0.164,0.011
	c0.049,0.038,0.066,0.1,0.049,0.158c-0.385,1.203-1.136,2.252-2.143,3.01c0.948-0.165,1.869-0.444,2.745-0.833
	c0.06-0.027,0.129-0.011,0.171,0.039C44.653,20.962,44.657,21.032,44.621,21.086z"/>
</svg>
