<?xml version="1.0" encoding="utf-8"?>
<!-- Generator: Adobe Illustrator 16.0.4, SVG Export Plug-In . SVG Version: 6.00 Build 0)  -->
<!DOCTYPE svg PUBLIC "-//W3C//DTD SVG 1.1//EN" "http://www.w3.org/Graphics/SVG/1.1/DTD/svg11.dtd">
<svg version="1.1"
	 id="svg9844" xmlns:sodipodi="http://sodipodi.sourceforge.net/DTD/sodipodi-0.dtd" xmlns:svg="http://www.w3.org/2000/svg" xmlns:cc="http://creativecommons.org/ns#" xmlns:dc="http://purl.org/dc/elements/1.1/" xmlns:inkscape="http://www.inkscape.org/namespaces/inkscape" xmlns:rdf="http://www.w3.org/1999/02/22-rdf-syntax-ns#"
	 xmlns="http://www.w3.org/2000/svg" xmlns:xlink="http://www.w3.org/1999/xlink" x="0px" y="0px" width="60px" height="60px"
	 viewBox="0 0 60 60" enable-background="new 0 0 60 60" xml:space="preserve">
<g opacity="0.5">
	<path opacity="0.5" fill="#FFFFFF" enable-background="new    " d="M26.25,34.511c3.088-1.601,6.149-3.188,9.239-4.791
		c-3.099-1.617-6.159-3.213-9.239-4.82C26.25,28.115,26.25,31.297,26.25,34.511z"/>
	<path opacity="0.5" fill="#FFFFFF" enable-background="new    " d="M30,0C13.432,0,0,13.432,0,30s13.432,30,30,30s30-13.432,30-30
		S46.568,0,30,0z M44.023,36.87c-0.356,1.545-1.621,2.686-3.143,2.855c-3.603,0.402-7.25,0.402-10.882,0.402
		c-3.631,0.003-7.28,0-10.883-0.402c-1.522-0.17-2.785-1.311-3.141-2.855c-0.506-2.201-0.506-4.604-0.506-6.87
		c0-2.266,0.006-4.669,0.512-6.87c0.355-1.545,1.619-2.686,3.14-2.856c3.604-0.402,7.252-0.402,10.884-0.402
		c3.631-0.002,7.278,0,10.882,0.402c1.522,0.17,2.787,1.311,3.143,2.856v0c0.506,2.201,0.502,4.604,0.502,6.87
		C44.531,32.267,44.529,34.669,44.023,36.87z"/>
</g>
</svg>
