<?xml version="1.0" encoding="utf-8"?>
<!-- Generator: Adobe Illustrator 16.0.4, SVG Export Plug-In . SVG Version: 6.00 Build 0)  -->
<!DOCTYPE svg PUBLIC "-//W3C//DTD SVG 1.1//EN" "http://www.w3.org/Graphics/SVG/1.1/DTD/svg11.dtd">
<svg version="1.1" id="Layer_1" xmlns="http://www.w3.org/2000/svg" xmlns:xlink="http://www.w3.org/1999/xlink" x="0px" y="0px"
	 width="563.447px" height="125.333px" viewBox="0 0 563.447 125.333" enable-background="new 0 0 563.447 125.333"
	 xml:space="preserve">
<polygon fill="#CD1543" points="101.711,30.955 122.276,0 142.841,30.955 122.276,47.652 "/>
<path fill="#FFFFFF" d="M2.149,56.015l21.743,26.697L2.149,109.409v15.924h61.204v-15.924H22.866L36.126,93.26
	c2.45-2.555,4.823-2.631,6.337-2.631h20.89V74.793h-20.89c-1.514,0-3.887-0.076-6.337-2.631l-13.11-16.148h40.337V40.09H2.149
	V56.015z"/>
<path fill="#FFFFFF" d="M148.973,40.109l-26.697,21.743L95.579,40.109H79.224v85.223h16.355V60.825l16.077,13.117
	c2.554,2.451,2.416,4.824,2.416,6.336v45.055h16.517V80.278c0-1.512-0.139-3.885,2.415-6.336l15.969-12.965v64.356h16.355V40.109
	H148.973z"/>
<path fill="#CD1543" d="M442.044,125.229c-2.882,0-4.873-0.584-6.09-1.785c-1.201-1.187-1.811-3.178-1.811-5.92v-13.006
	c0-3.193,1.371-7.002,7.9-7.002h10.197v6.182h-8.096c-2.177,0-2.666,0.26-2.742,0.312c-0.269,0.173-0.688,0.713-0.688,2.533v8.918
	c0,2.219,0.387,2.855,0.553,3.025c0.165,0.168,0.772,0.561,2.878,0.561h8.096v6.182H442.044z"/>
<polygon fill="#CD1543" points="458.327,125.229 458.327,97.438 464.743,97.438 464.743,119.047 476.462,119.047 476.462,125.229 
	"/>
<path fill="#CD1543" d="M486.613,125.229c-1.906,0-3.332-0.535-4.236-1.592c-1.051-1.225-1.561-3.324-1.561-6.424V97.438h6.455
	v17.984c0,1.852,0.161,2.617,0.297,2.934c0.138,0.321,0.406,0.691,1.265,0.691h5.14c0.781,0,1.211-0.306,1.437-1.02
	c0.091-0.305,0.204-1.014,0.204-2.605V97.438h6.454v19.775c0,3.072-0.523,5.173-1.599,6.426c-0.906,1.055-2.345,1.59-4.276,1.59
	H486.613z"/>
<path fill="#CD1543" d="M508.21,125.229V97.438h11.326c2.484,0,4.132,0.213,5.036,0.65c1.538,0.738,2.318,2.299,2.318,4.641v4.049
	c0,1.824-0.721,3.195-2.106,4.041c1.819,0.867,2.769,2.538,2.769,4.914v4.051c0,2.391-0.818,4.004-2.433,4.795
	c-0.937,0.439-2.569,0.65-5,0.65H508.21z M518.758,119.631c1.574,0,2.064-0.271,2.202-0.389c0.339-0.287,0.41-0.924,0.41-1.406
	v-2.104c0-0.514,0-1.717-2.612-1.717h-4.405v5.615H518.758z M518.291,108.301c1.548,0,1.926-0.162,1.986-0.193
	c0.36-0.182,0.433-0.781,0.433-1.252v-2.375c0-0.979-0.401-1.164-0.552-1.232c-0.172-0.08-0.64-0.213-1.867-0.213h-3.938v5.266
	H518.291z"/>
<path fill="#CD1543" d="M469.861,48.928h-13.78v38.85h-9.239v-38.85h-13.779v-8.75h36.799V48.928z"/>
<path fill="#CD1543" d="M526.364,87.778h-9.239V40.177h9.239V87.778z"/>
<path fill="#CD1543" d="M507.871,61.292V48.464c0-5.609-3.46-8.414-10.377-8.414h-21.946v47.678h9.325V70.971h2.205
	c1.443,0.012,2.359,0.444,2.98,0.918l7.017,5.631c1.429,1.373,1.472,2.699,1.472,3.547v6.662h9.346v-9.873
	c0-0.846-0.156-2.175-1.586-3.545l-5.059-4.102C505.183,68.912,507.871,65.942,507.871,61.292z M499.176,58.911
	c0,1.449-0.445,2.454-1.332,3.016c-0.655,0.374-1.707,0.56-3.155,0.56h-9.816V48.884h8.975c1.823,0,3.061,0.165,3.717,0.492
	c1.074,0.514,1.612,1.613,1.612,3.295V58.911z"/>
<path fill="#FFFFFF" d="M240.214,81.342c0,11.531-6.642,17.295-19.923,17.295h-22.059v26.695h-16.668V40.109h40.23
	c12.278,0,18.419,6.142,18.419,18.424V81.342z M223.299,62.919c0-2.506-0.607-4.324-1.817-5.452
	c-1.212-1.128-3.364-1.692-6.455-1.692h-16.794v27.323h16.794c3.091,0,5.243-0.418,6.455-1.254c1.21-0.834,1.817-2.674,1.817-5.516
	V62.919z"/>
<path fill="#FFFFFF" d="M271.035,125.333h-16.548V40.109h16.548V125.333z"/>
<path fill="#FFFFFF" d="M358.763,56.015l21.743,26.697l-21.743,26.697v15.924h61.204v-15.924h-40.488l13.262-16.148
	c2.45-2.555,4.823-2.631,6.336-2.631h20.891V74.793h-20.891c-1.513,0-3.886-0.076-6.336-2.631l-13.11-16.148h40.337V40.09h-61.204
	V56.015z"/>
<path fill="#FFFFFF" d="M344.913,78.08v-22.93c0-10.026-6.184-15.04-18.549-15.04h-39.228v85.223h16.668V95.379h3.941
	c2.581,0.023,4.218,0.795,5.328,1.643l12.541,10.066c2.554,2.45,2.631,4.823,2.631,6.336v11.908h16.706v-17.646
	c0-1.514-0.28-3.887-2.834-6.336l-9.043-7.33C340.109,91.7,344.913,86.389,344.913,78.08z M329.372,73.823
	c0,2.591-0.795,4.387-2.381,5.39c-1.171,0.67-3.051,1.003-5.64,1.003h-17.547V55.901h16.043c3.258,0,5.471,0.293,6.643,0.877
	c1.921,0.92,2.882,2.883,2.882,5.891V73.823z"/>
<path fill="#CD1543" d="M546.646,55.313h4.119c0.98,0,1.656-0.255,2.039-0.764c0.375-0.498,0.568-1.114,0.568-1.837
	c0-0.808-0.193-1.42-0.568-1.83c-0.383-0.399-1.016-0.601-1.912-0.601h-4.246V55.313z M550.892,57.572h-4.246v5.439h-2.559V48.018
	h6.633c1.902,0,3.256,0.355,4.055,1.089c0.791,0.728,1.203,1.902,1.203,3.521c0,1.313-0.256,2.303-0.766,2.974
	c-0.5,0.672-1.102,1.174-1.799,1.506l2.936,5.904h-2.766L550.892,57.572z M538.548,58.401c0,3.16,0.916,5.5,2.752,7.031
	c1.828,1.518,4.637,2.278,8.414,2.278c3.775,0,6.592-0.76,8.428-2.278c1.82-1.531,2.736-3.871,2.736-7.031v-5.774
	c0-6.198-3.723-9.303-11.164-9.303c-7.443,0-11.166,3.105-11.166,9.303V58.401z M535.988,52.458c0-1.787,0.27-3.393,0.82-4.821
	c0.545-1.425,1.381-2.629,2.518-3.623c1.133-0.986,2.562-1.753,4.287-2.287c1.711-0.529,3.748-0.797,6.102-0.797
	c2.32,0,4.35,0.268,6.066,0.797c1.727,0.533,3.15,1.301,4.285,2.287c1.137,0.994,1.977,2.198,2.545,3.623
	c0.555,1.428,0.836,3.034,0.836,4.821v6.111c0,3.583-1.127,6.396-3.381,8.446c-2.248,2.059-5.703,3.085-10.352,3.085
	c-2.354,0-4.395-0.268-6.127-0.794c-1.74-0.538-3.166-1.291-4.287-2.291c-1.119-0.991-1.947-2.199-2.492-3.614
	c-0.551-1.434-0.82-3.042-0.82-4.832V52.458z"/>
</svg>
